<?xml version="1.0" standalone="no"?><!DOCTYPE svg PUBLIC "-//W3C//DTD SVG 1.1//EN" "http://www.w3.org/Graphics/SVG/1.1/DTD/svg11.dtd"><svg t="1789435611494" class="icon" viewBox="0 0 1024 1024" version="1.1" xmlns="http://www.w3.org/2000/svg" p-id="13435" xmlns:xlink="http://www.w3.org/1999/xlink" width="48" height="48"><path d="M944.49 733.1c-13.63-13.64-33.19-19.65-54.7-17.04l-58.21-58.21c31.95-51.25 38.04-102.19 11.27-128.97-21.48-21.48-58.36-22.8-101.18-3.64l-1.84 0.82-91.16-91.16 137.7-137.7 28.91-161.45-161.45 28.9-137.72 137.71L378.4 164.65l-161.45-28.9 28.91 161.45 137.71 137.71-91.16 91.16-1.84-0.82c-42.84-19.16-79.71-17.84-101.18 3.64-26.77 26.77-20.68 77.71 11.27 128.97l-58.21 58.21c-21.52-2.61-41.07 3.4-54.7 17.04-28.03 28.03-21.63 80.03 14.26 115.92 16.74 16.75 37.5 27.74 58.45 30.95 4.13 0.64 8.2 0.95 12.19 0.95 17.74 0 33.81-6.17 45.28-17.64 13.63-13.63 19.64-33.2 17.03-54.7l58.23-58.22c14.85 9.31 29.88 16.69 44.51 21.57 13.85 4.62 26.82 6.91 38.6 6.9 18.72 0 34.43-5.79 45.85-17.19 21.48-21.47 22.8-58.35 3.65-101.18l-0.83-1.85 91.16-91.16 91.16 91.16-0.83 1.85c-19.16 42.83-17.83 79.7 3.65 101.18 11.41 11.41 27.12 17.2 45.85 17.2 11.78 0 24.75-2.29 38.6-6.9 14.62-4.87 29.65-12.26 44.5-21.57l58.23 58.22c-2.6 21.5 3.4 41.08 17.03 54.7 11.47 11.48 27.54 17.64 45.28 17.64 3.99 0 8.07-0.31 12.19-0.95 20.95-3.22 41.7-14.2 58.45-30.95 16.75-16.74 27.74-37.5 30.95-58.45 3.44-22.48-2.64-43.43-16.7-57.49zM257.23 176.03l105.38 18.87 122.81 122.81-86.51 86.51L276.1 281.4l-18.87-105.37z m412.38 18.86l105.38-18.87-18.87 105.38L378 659.53l-86.51-86.51 378.12-378.13zM199.6 797.9l2.01 8.78c3.19 13.89 0.74 26.13-6.72 33.59-9.1 9.1-22.41 8.62-29.52 7.53-13.95-2.14-28.66-10.08-40.37-21.79-22.8-22.81-29.33-54.81-14.25-69.89 5.31-5.31 13.04-8.08 22.08-8.08 3.65 0 7.5 0.45 11.5 1.37l8.78 2.02 56.72-56.72 46.48 46.48-56.71 56.71z m199.52-59.28c-9.29 9.28-27.93 10.16-51.13 2.43-27.36-9.12-56.89-28.61-83.15-54.86-55.01-55.02-71.79-114.92-52.43-134.28 5.05-5.04 12.96-7.55 22.82-7.55 5.71 0 12.07 0.84 18.91 2.51l-10.68 10.68v30.96l119.06 119.06h30.96l10.68-10.68c4.55 18.64 2.92 33.76-5.04 41.73z m234.19-273.03l107.43 107.43-86.51 86.51L546.8 552.1l86.51-86.51z m50.93 275.46c-23.23 7.74-41.86 6.84-51.13-2.44-7.97-7.97-9.6-23.08-5.04-41.73l10.68 10.68h30.96L788.77 588.5v-30.95l-10.68-10.68c18.65-4.55 33.76-2.93 41.74 5.04 19.35 19.36 2.58 79.27-52.44 134.28-26.26 26.26-55.79 45.74-83.15 54.86zM929 785.64c-2.14 13.95-10.08 28.66-21.79 40.37-11.71 11.71-26.42 19.65-40.37 21.79-7.11 1.08-20.42 1.56-29.52-7.54-7.45-7.45-9.9-19.69-6.71-33.58l2.01-8.78-56.71-56.72 46.48-46.48 56.72 56.72 8.78-2.02c13.89-3.19 26.13-0.75 33.58 6.71h0.01c9.09 9.11 8.62 22.41 7.52 29.53z" fill="#E8E0D0" p-id="13436"></path></svg>